<?xml version="1.0" encoding="utf-8"?>
<!-- Generator: Adobe Illustrator 16.0.0, SVG Export Plug-In . SVG Version: 6.00 Build 0)  -->
<!DOCTYPE svg PUBLIC "-//W3C//DTD SVG 1.1//EN" "http://www.w3.org/Graphics/SVG/1.1/DTD/svg11.dtd">
<svg version="1.1" id="Layer_1" xmlns="http://www.w3.org/2000/svg" xmlns:xlink="http://www.w3.org/1999/xlink" x="0px" y="0px"
	 width="38px" height="57px" viewBox="0 0 38 57" enable-background="new 0 0 38 57" xml:space="preserve">
<g>
	<g>
		<path fill="#FFFFFF" d="M26.221,12.016c0.813,0.449,1.461,0.854,2.104,1.217c0.639,0.361,1.204,0.541,1.757,0.541
			c0.633,0,1.127-0.15,1.527-0.449c0.398-0.299,0.768-0.748,1.131-1.346l3.042-5.871c-0.945-0.898-2.019-1.703-3.214-2.414
			s-2.34-1.32-3.719-1.832C27.896,1.508,27,1.236,26,1v10.838C26,11.898,26.107,11.953,26.221,12.016z"/>
		<path fill="#FFFFFF" d="M11.924,1.674C9.678,2.584,7.762,3.801,6.213,5.32C4.668,6.842,3.485,8.574,2.688,10.52
			s-1.199,3.939-1.199,5.984c0,2.543,0.334,4.682,1.012,6.414c0.678,1.734,1.563,3.18,2.663,4.34c1.1,1.158,2.388,2.094,3.79,2.805
			c1.301,0.66,3.046,1.215,4.046,1.68V1.32C13,1.436,12.256,1.539,11.924,1.674z"/>
		<path fill="#FFFFFF" d="M35.483,32.119c-0.676-1.607-1.563-2.975-2.664-4.096c-1.098-1.121-2.212-2.045-3.622-2.768
			C28.104,24.697,27,24.213,26,23.766v11.053c0,3.158-0.525,6.029-1.299,8.619c-0.77,2.59-2,4.809-3.555,6.66
			c-1.551,1.85-3.535,3.287-5.882,4.309c-0.951,0.414-2.005,0.723-3.091,0.969c0.133,0.031,0.256,0.074,0.393,0.102
			C14.269,55.826,15.938,56,17.58,56c2.998,0,5.671-0.467,8.026-1.402s4.337-2.219,5.942-3.852c1.609-1.633,2.835-3.547,3.681-5.742
			c0.848-2.193,1.27-4.551,1.27-7.068C36.499,35.666,36.159,33.727,35.483,32.119z"/>
		<path fill="#FFFFFF" d="M5.575,45.457c1.238,0,2.316-0.176,3.238-0.525c0.682-0.258,1.273-0.645,1.781-1.156
			c-0.043-0.027-0.098-0.053-0.141-0.078c-0.93-0.574-1.766-1.1-2.5-1.572c-0.738-0.473-1.469-0.711-2.195-0.711
			c-0.555,0-1.07,0.145-1.539,0.432c-0.473,0.285-0.852,0.643-1.145,1.064l-1.305,2.125c0.422,0.006,0.926,0.074,1.535,0.209
			C3.935,45.385,4.692,45.457,5.575,45.457z"/>
	</g>
</g>
</svg>
