<?xml version="1.0" encoding="utf-8"?>
<!-- Generator: Adobe Illustrator 16.0.0, SVG Export Plug-In . SVG Version: 6.00 Build 0)  -->
<!DOCTYPE svg PUBLIC "-//W3C//DTD SVG 1.1//EN" "http://www.w3.org/Graphics/SVG/1.1/DTD/svg11.dtd">
<svg version="1.1" id="Layer_1" xmlns="http://www.w3.org/2000/svg" xmlns:xlink="http://www.w3.org/1999/xlink" x="0px" y="0px"
	 width="18px" height="9.5px" viewBox="0 0 18 9.5" enable-background="new 0 0 18 9.5" xml:space="preserve">
<g>
	<g>
		<path fill="#FFFFFF" d="M9,9.5c-0.128,0-0.256-0.049-0.354-0.146l-8.5-8.5c-0.195-0.195-0.195-0.512,0-0.707s0.512-0.195,0.707,0
			l8.5,8.5c0.195,0.195,0.195,0.512,0,0.707C9.256,9.451,9.128,9.5,9,9.5z"/>
	</g>
	<g>
		<path fill="#FFFFFF" d="M9,9.5c-0.128,0-0.256-0.049-0.354-0.146c-0.195-0.195-0.195-0.512,0-0.707l8.5-8.5
			c0.195-0.195,0.512-0.195,0.707,0s0.195,0.512,0,0.707l-8.5,8.5C9.256,9.451,9.128,9.5,9,9.5z"/>
	</g>
</g>
</svg>
