<?xml version="1.0" encoding="utf-8"?>
<!-- Generator: Adobe Illustrator 16.0.0, SVG Export Plug-In . SVG Version: 6.00 Build 0)  -->
<!DOCTYPE svg PUBLIC "-//W3C//DTD SVG 1.1//EN" "http://www.w3.org/Graphics/SVG/1.1/DTD/svg11.dtd">
<svg version="1.1" id="Layer_1" xmlns="http://www.w3.org/2000/svg" xmlns:xlink="http://www.w3.org/1999/xlink" x="0px" y="0px"
	 width="50px" height="50px" viewBox="0 0 50 50" enable-background="new 0 0 50 50" xml:space="preserve">
<g>
	<rect x="-6.25" y="-6.25" fill="#2980BA" width="62" height="63"/>
	<path fill="#FFFFFF" d="M27.789,22.75H25.75v-1.11c0-0.467,0.449-0.89,0.668-0.89s1.332,0,1.332,0v-1.743L26.083,19
		c-2.049,0-2.333,1.533-2.333,2.515v1.235h-2v2h2c0,3,0,6,0,6h2c0,0,0-3,0-6h1.822L27.789,22.75z"/>
</g>
<g>
	<rect x="-5.75" y="-6" fill="#E64C3C" width="62.5" height="62.5"/>
	<path fill="#FFFFFF" d="M27.414,23.75c0.074,0.402,0.115,0.822,0.115,1.261c0,3.427-2.295,5.864-5.76,5.864c-3.314,0-6-2.684-6-6
		c0-3.314,2.686-6,6-6c1.621,0,2.975,0.597,4.012,1.564l-1.689,1.691v-0.004c-0.631-0.6-1.43-0.908-2.322-0.908
		c-1.979,0-3.588,1.674-3.588,3.653s1.609,3.656,3.588,3.656c1.797,0,3.02-1.028,3.271-2.438H21.77V23.75H27.414z M31.895,24.125
		V22.25h-1.5v1.875H28.52v1.5h1.875V27.5h1.5v-1.875h1.875v-1.5H31.895z"/>
</g>
<g>
	<rect x="-5.75" y="-6" fill="#3B97D3" width="62.5" height="62.5"/>
	<g id="black">
		<g id="slice" transform="translate(-600.000000, 0.000000)">
		</g>
		<g id="linkedin" transform="translate(16.000000, 17.000000)">
			<path fill="#FFFFFF" d="M6.002,14.25V6.314H3.549v7.936H6.002z M6.002,3.5C5.988,2.791,5.514,2.25,4.744,2.25
				S3.475,2.791,3.475,3.5c0,0.695,0.486,1.251,1.242,1.251H4.73C5.514,4.751,6.002,4.195,6.002,3.5z M10.004,14.25V9.729
				c0-0.242,0.018-0.484,0.088-0.656c0.195-0.485,0.639-0.985,1.381-0.985c0.975,0,1.586,0.553,1.586,1.641v4.521h2.469V9.607
				c0-2.488-1.326-3.645-3.1-3.645c-1.451,0-2.088,0.812-2.441,1.364l0.018-1.062H7.537c0.037,0.76,0,7.985,0,7.985H10.004z"/>
		</g>
	</g>
</g>
<g>
	<rect class="h-img" id="email" x="-5.75" y="-6" fill="#4FBA6F" width="62.5" height="62.5"/>
	<path fill="#FFFFFF" d="M25.5,27.25c-0.266,0-0.5-0.094-1-0.336l-7-3.664v7c0,0.55,0.451,1,1,1h14c0.551,0,1-0.45,1-1v-7l-7,3.664
		C26,27.156,25.766,27.25,25.5,27.25z M32.5,19.25h-14c-0.549,0-1,0.45-1,1v0.758l8,4.205l8-4.205V20.25
		C33.5,19.7,33.051,19.25,32.5,19.25z"/>
</g>
</svg>
