<?xml version="1.0" encoding="utf-8"?>
<!-- Generator: Adobe Illustrator 16.0.0, SVG Export Plug-In . SVG Version: 6.00 Build 0)  -->
<!DOCTYPE svg PUBLIC "-//W3C//DTD SVG 1.1//EN" "http://www.w3.org/Graphics/SVG/1.1/DTD/svg11.dtd">
<svg version="1.1" id="Layer_1" xmlns="http://www.w3.org/2000/svg" xmlns:xlink="http://www.w3.org/1999/xlink" x="0px" y="0px"
	 width="50px" height="50px" viewBox="0 0 50 50" enable-background="new 0 0 50 50" xml:space="preserve">
<g>
	<rect x="-74.409" y="-7.814" fill="#E64C3C" width="62.5" height="62.5"/>
	<path fill="#FFFFFF" d="M-40.515,22.311c0.074,0.401,0.115,0.821,0.115,1.26c0,3.427-2.294,5.864-5.759,5.864c-3.314,0-6-2.684-6-6
		c0-3.315,2.686-6,6-6c1.621,0,2.974,0.596,4.011,1.564l-1.69,1.691v-0.004c-0.63-0.6-1.429-0.908-2.321-0.908
		c-1.979,0-3.588,1.673-3.588,3.653c0,1.979,1.608,3.656,3.588,3.656c1.797,0,3.02-1.028,3.271-2.438h-3.271v-2.34H-40.515z
		 M-36.034,22.686v-1.875h-1.5v1.875h-1.875v1.5h1.875v1.875h1.5v-1.875h1.875v-1.5H-36.034z"/>
</g>
<g>
	<rect x="100.784" y="-21.241" fill="#3B97D3" width="62.5" height="62.5"/>
	<g id="black">
		<g id="slice" transform="translate(-600.000000, 0.000000)">
		</g>
		<g id="linkedin" transform="translate(16.000000, 17.000000)">
			<path fill="#FFFFFF" d="M112.536-0.991v-7.936h-2.453v7.936H112.536z M112.536-11.74c-0.014-0.71-0.488-1.251-1.258-1.251
				s-1.27,0.541-1.27,1.251c0,0.695,0.486,1.251,1.242,1.251h0.014C112.048-10.489,112.536-11.045,112.536-11.74z M116.538-0.991
				v-4.521c0-0.242,0.018-0.484,0.088-0.656c0.195-0.484,0.639-0.984,1.381-0.984c0.975,0,1.586,0.553,1.586,1.641v4.521h2.469
				v-4.643c0-2.487-1.326-3.644-3.1-3.644c-1.451,0-2.088,0.812-2.441,1.364l0.018-1.062h-2.467c0.037,0.76,0,7.984,0,7.984H116.538
				z"/>
		</g>
	</g>
</g>
<g>
	<rect x="94.759" y="59.625" fill="#4FBA6F" width="62.5" height="62.5"/>
	<path fill="#FFFFFF" d="M126.009,92.875c-0.266,0-0.5-0.094-1-0.336l-7-3.664v7c0,0.55,0.451,1,1,1h14c0.551,0,1-0.45,1-1v-7
		l-7,3.664C126.509,92.781,126.274,92.875,126.009,92.875z M133.009,84.875h-14c-0.549,0-1,0.45-1,1v0.758l8,4.205l8-4.205v-0.758
		C134.009,85.325,133.56,84.875,133.009,84.875z"/>
</g>
<g>
	<rect class="h-img" id="facebook" x="-6.25" y="-6.25" fill="#2980BA" width="62" height="63"/>
	<path fill="#FFFFFF" d="M27.789,22.75H25.75v-1.11c0-0.467,0.449-0.89,0.668-0.89s1.332,0,1.332,0v-1.743L26.083,19
		c-2.049,0-2.333,1.533-2.333,2.515v1.235h-2v2h2c0,3,0,6,0,6h2c0,0,0-3,0-6h1.822L27.789,22.75z"/>
</g>
</svg>
