<?xml version="1.0" encoding="utf-8"?>
<!-- Generator: Adobe Illustrator 16.0.0, SVG Export Plug-In . SVG Version: 6.00 Build 0)  -->
<!DOCTYPE svg PUBLIC "-//W3C//DTD SVG 1.1//EN" "http://www.w3.org/Graphics/SVG/1.1/DTD/svg11.dtd">
<svg version="1.1" id="Layer_1" xmlns="http://www.w3.org/2000/svg" xmlns:xlink="http://www.w3.org/1999/xlink" x="0px" y="0px"
	 width="62.5px" height="62.5px" viewBox="0 0 62.5 62.5" enable-background="new 0 0 62.5 62.5" xml:space="preserve">
<g>
	<g>
		<path d="M33.895,30.125c0.074,0.401,0.115,0.821,0.115,1.26c0,3.427-2.295,5.865-5.76,5.865c-3.314,0-6-2.684-6-6
			c0-3.315,2.686-6,6-6c1.621,0,2.974,0.596,4.012,1.564l-1.69,1.691v-0.004c-0.63-0.6-1.429-0.908-2.321-0.908
			c-1.979,0-3.588,1.673-3.588,3.653s1.608,3.656,3.588,3.656c1.797,0,3.02-1.027,3.271-2.438H28.25v-2.34H33.895z M38.375,30.5
			v-1.875h-1.5V30.5H35V32h1.875v1.875h1.5V32h1.875v-1.5H38.375z"/>
	</g>
	<g>
		<rect x="62.5" y="0" width="62.5" height="62.5"/>
		<g id="black">
			<g id="slice" transform="translate(-600.000000, 0.000000)">
			</g>
			<g id="linkedin" transform="translate(16.000000, 17.000000)">
				<path d="M74.252,20.25v-7.936h-2.453v7.936H74.252z M74.252,9.5c-0.015-0.71-0.488-1.251-1.258-1.251S71.724,8.791,71.724,9.5
					c0,0.695,0.487,1.251,1.242,1.251h0.014C73.764,10.751,74.252,10.195,74.252,9.5z M78.253,20.25v-4.521
					c0-0.242,0.018-0.484,0.089-0.656c0.194-0.485,0.638-0.985,1.381-0.985c0.974,0,1.585,0.553,1.585,1.641v4.521h2.469v-4.643
					c0-2.488-1.326-3.645-3.099-3.645c-1.451,0-2.089,0.812-2.442,1.364l0.018-1.062h-2.466c0.036,0.76,0,7.985,0,7.985H78.253z"/>
			</g>
		</g>
	</g>
	<g>
		<rect x="62.5" y="62.5" width="62.5" height="62.5"/>
		<path d="M93.75,95.75c-0.266,0-0.5-0.094-1-0.336l-7-3.664v7c0,0.549,0.45,1,1,1h14c0.55,0,1-0.451,1-1v-7l-7,3.664
			C94.25,95.656,94.016,95.75,93.75,95.75z M100.75,87.75h-14c-0.55,0-1,0.449-1,1v0.758l8,4.205l8-4.205V88.75
			C101.75,88.199,101.3,87.75,100.75,87.75z"/>
	</g>
	<g>
		<rect y="62.5" width="62.5" height="62.5"/>
		<path d="M34.039,91.635h-1.898v-1.246c0-0.467,0.309-0.576,0.527-0.576c0.218,0,1.341,0,1.341,0v-2.057l-1.847-0.006
			c-2.049,0-2.515,1.533-2.515,2.514v1.371h-1.185v2.119h1.185c0,2.719,0,5.996,0,5.996h2.493c0,0,0-3.309,0-5.996h1.681
			L34.039,91.635z"/>
	</g>
</g>
</svg>
