<?xml version="1.0" encoding="utf-8"?>
<!-- Generator: Adobe Illustrator 16.0.0, SVG Export Plug-In . SVG Version: 6.00 Build 0)  -->
<!DOCTYPE svg PUBLIC "-//W3C//DTD SVG 1.1//EN" "http://www.w3.org/Graphics/SVG/1.1/DTD/svg11.dtd">
<svg version="1.1" id="Layer_1" xmlns="http://www.w3.org/2000/svg" xmlns:xlink="http://www.w3.org/1999/xlink" x="0px" y="0px"
	 width="50px" height="28px" viewBox="0 0 50 28" enable-background="new 0 0 50 28" xml:space="preserve">
<polygon points="44.444,0 38.889,0 33.333,0 33.333,5.599 33.333,11.199 30.715,11.199 27.777,11.199 27.777,5.599 27.777,0 
	22.222,0 22.222,5.599 22.222,11.199 21.381,11.199 0,11.199 0,16.8 20.302,16.8 22.222,16.8 22.222,28.001 27.777,28.001 
	27.777,16.8 33.333,16.8 34.715,16.8 38.889,16.8 38.889,11.199 38.889,5.599 41.698,5.599 44.444,5.599 44.444,11.199 44.444,16.8 
	50,16.8 50,11.199 50,5.599 50,0 "/>
</svg>
